<svg width="22" height="21" viewBox="0 0 22 21" fill="none" xmlns="http://www.w3.org/2000/svg">
<path d="M3.5 6.15799L14.08 1.098C14.1999 1.04059 14.3301 1.00768 14.4629 1.00119C14.5957 0.994703 14.7285 1.01477 14.8535 1.06021C14.9784 1.10565 15.0931 1.17555 15.1907 1.26583C15.2883 1.35612 15.367 1.46496 15.422 1.58599L17.5 6.15799M5 8.15799V6.15799M5 12.158V13.158M5 17.158V19.158" stroke="white" stroke-width="2" stroke-linecap="round" stroke-linejoin="round"/>
<path d="M19 6.15802H3C1.89543 6.15802 1 7.05345 1 8.15802V17.158C1 18.2626 1.89543 19.158 3 19.158H19C20.1046 19.158 21 18.2626 21 17.158V8.15802C21 7.05345 20.1046 6.15802 19 6.15802Z" stroke="white" stroke-width="2" stroke-linecap="round" stroke-linejoin="round"/>
</svg>
